<?xml version="1.0" encoding="UTF-8" standalone="no"?>
<svg width="16px" height="16px" viewBox="0 0 16 16" version="1.1" xmlns="http://www.w3.org/2000/svg" xmlns:xlink="http://www.w3.org/1999/xlink">
    <!-- Generator: Sketch 40.3 (33839) - http://www.bohemiancoding.com/sketch -->
    <title>speedometer</title>
    <desc>Created with Sketch.</desc>
    <defs></defs>
    <g id="wireframes" stroke="none" stroke-width="1" fill="none" fill-rule="evenodd">
        <g id="Desktop-HD" transform="translate(-979.000000, -30.000000)" fill="#FFFFFF">
            <g id="masthead">
                <g id="Group-8" transform="translate(979.000000, 30.000000)">
                    <path d="M13.6551724,2.31724138 C13.6413793,2.30344828 13.6137931,2.28965517 13.6,2.27586207 C12.1517241,0.868965517 10.1793103,0 8,0 C5.82068966,0 3.84827586,0.882758621 2.4,2.30344828 C2.3862069,2.31724138 2.37241379,2.31724138 2.34482759,2.33103448 C2.33103448,2.34482759 2.33103448,2.35862069 2.31724138,2.37241379 C0.882758621,3.80689655 0,5.80689655 0,8 C0,12.4137931 3.5862069,16 8,16 C12.4137931,16 16,12.4137931 16,8 C16,5.80689655 15.1172414,3.82068966 13.6827586,2.37241379 C13.6689655,2.35862069 13.6689655,2.33103448 13.6551724,2.31724138 L13.6551724,2.31724138 Z M8,14.8827586 C4.4,14.8827586 1.43448276,12.0965517 1.14482759,8.56551724 L6.04137931,8.56551724 C6.28965517,9.40689655 7.06206897,10.0275862 7.9862069,10.0275862 C8.91034483,10.0275862 9.69655172,9.40689655 9.93103448,8.56551724 L14.8275862,8.56551724 C14.5655172,12.0965517 11.6,14.8827586 8,14.8827586 L8,14.8827586 Z M7.10344828,8 C7.10344828,7.50344828 7.50344828,7.10344828 8,7.10344828 C8.49655172,7.10344828 8.89655172,7.50344828 8.89655172,8 C8.89655172,8.49655172 8.49655172,8.89655172 8,8.89655172 C7.50344828,8.89655172 7.10344828,8.49655172 7.10344828,8 L7.10344828,8 Z M9.94482759,7.43448276 C9.83448276,7.03448276 9.6,6.68965517 9.29655172,6.44137931 L10.8275862,2.95172414 C10.9517241,2.66206897 10.8275862,2.33103448 10.537931,2.20689655 C10.2482759,2.08275862 9.91724138,2.20689655 9.79310345,2.49655172 L8.26206897,5.9862069 C8.17931034,5.97241379 8.08275862,5.97241379 8,5.97241379 C7.07586207,5.97241379 6.30344828,6.59310345 6.05517241,7.43448276 L1.14482759,7.43448276 C1.26896552,5.95862069 1.84827586,4.60689655 2.77241379,3.54482759 L3.83448276,4.60689655 C3.94482759,4.71724138 4.08275862,4.77241379 4.23448276,4.77241379 C4.37241379,4.77241379 4.52413793,4.71724138 4.63448276,4.60689655 C4.85517241,4.3862069 4.85517241,4.02758621 4.63448276,3.80689655 L3.57241379,2.74482759 C4.63448276,1.84827586 5.97241379,1.26896552 7.43448276,1.14482759 L7.43448276,2.64827586 C7.43448276,2.96551724 7.68275862,3.2137931 8,3.2137931 C8.31724138,3.2137931 8.56551724,2.96551724 8.56551724,2.64827586 L8.56551724,1.14482759 C10.0275862,1.26896552 11.3655172,1.84827586 12.4275862,2.74482759 L11.3793103,3.80689655 C11.1586207,4.02758621 11.1586207,4.3862069 11.3793103,4.60689655 C11.4896552,4.71724138 11.6275862,4.77241379 11.7793103,4.77241379 C11.9172414,4.77241379 12.0689655,4.71724138 12.1793103,4.60689655 L13.2413793,3.54482759 C14.1517241,4.60689655 14.7448276,5.95862069 14.8551724,7.43448276 L9.94482759,7.43448276 L9.94482759,7.43448276 Z" id="speedometer"></path>
                </g>
            </g>
        </g>
    </g>
</svg>