<?xml version="1.0" encoding="UTF-8" standalone="no"?>
<svg width="58px" height="52px" viewBox="0 0 58 52" version="1.1" xmlns="http://www.w3.org/2000/svg" xmlns:xlink="http://www.w3.org/1999/xlink">
    <!-- Generator: Sketch 40.3 (33839) - http://www.bohemiancoding.com/sketch -->
    <title>heart</title>
    <desc>Created with Sketch.</desc>
    <defs></defs>
    <g id="Page-1" stroke="none" stroke-width="1" fill="none" fill-rule="evenodd">
        <g id="100-Basic-Element-Icons-Light" transform="translate(-1707.000000, -801.000000)" fill="#FFFFFF">
            <path d="M1764.57757,814.763234 C1762.92592,806.455245 1757.02002,801.100096 1749.41242,801.100096 C1745.15818,801.100096 1740.55358,802.851781 1736.04908,806.154957 C1731.49453,802.751684 1726.88993,801 1722.58564,801 C1714.97804,801 1709.02209,806.405197 1707.42049,814.813282 C1705.01809,827.275265 1712.72579,843.841193 1735.29833,852.849856 C1735.54858,852.949952 1735.79883,853 1736.04908,853 C1736.29933,853 1736.54958,852.949952 1736.79983,852.849856 C1759.32232,843.641001 1766.97997,827.12512 1764.57757,814.763234 L1764.57757,814.763234 Z M1736.04908,848.74591 C1716.22929,840.538017 1709.37244,826.224254 1711.42449,815.564004 C1712.62569,809.207892 1717.03009,805.053898 1722.58564,805.053898 C1726.33938,805.053898 1730.54358,806.85563 1734.74778,810.308951 C1735.49853,810.909528 1736.54958,810.909528 1737.30033,810.308951 C1741.50453,806.955727 1745.65868,805.204042 1749.41242,805.204042 C1754.96797,805.204042 1759.32232,809.25794 1760.57357,815.564004 C1762.62562,826.124158 1755.81882,840.387873 1736.04908,848.74591 L1736.04908,848.74591 Z" id="heart"></path>
        </g>
    </g>
</svg>