<?xml version="1.0" encoding="UTF-8" standalone="no"?>
<svg width="16px" height="16px" viewBox="0 0 16 16" version="1.1" xmlns="http://www.w3.org/2000/svg" xmlns:xlink="http://www.w3.org/1999/xlink">
    <!-- Generator: Sketch 40 (33762) - http://www.bohemiancoding.com/sketch -->
    <title>home</title>
    <desc>Created with Sketch.</desc>
    <defs></defs>
    <g id="Page-1" stroke="none" stroke-width="1" fill="none" fill-rule="evenodd">
        <g id="Desktop-HD" transform="translate(-250.000000, -29.000000)" fill="#FFFFFF">
            <g id="masthead" transform="translate(1.000000, 0.000000)">
                <g id="Group-6" transform="translate(249.000000, 29.000000)">
                    <path d="M0.604810997,15.9862306 L6.08934708,15.9862306 C6.11683849,15.9862306 6.1580756,16 6.18556701,16 L9.89690722,16 C9.92439863,16 9.96563574,16 9.99312715,15.9862306 L15.4364261,15.9862306 C15.7525773,15.9862306 16,15.7383821 16,15.4216867 L16,7.98623064 C16,7.94492255 16,7.91738382 15.9862543,7.87607573 C15.9862543,7.84853701 15.9725086,7.83476764 15.9587629,7.80722892 C15.9587629,7.79345955 15.9587629,7.77969019 15.9450172,7.77969019 C15.9312715,7.75215146 15.9175258,7.72461274 15.9037801,7.71084337 C15.9037801,7.69707401 15.8900344,7.69707401 15.8900344,7.68330465 C15.8762887,7.65576592 15.8487973,7.62822719 15.8213058,7.60068847 L8.39862543,0.165232358 C8.17869416,-0.0550774527 7.82130584,-0.0550774527 7.60137457,0.165232358 L0.178694158,7.60068847 C0.151202749,7.62822719 0.12371134,7.65576592 0.109965636,7.68330465 C0.109965636,7.69707401 0.0962199313,7.69707401 0.0962199313,7.71084337 C0.0824742268,7.7383821 0.0687285223,7.75215146 0.0549828179,7.77969019 C0.0549828179,7.79345955 0.0412371134,7.80722892 0.0412371134,7.82099828 C0.0274914089,7.84853701 0.0274914089,7.86230637 0.0137457045,7.88984509 C0,7.93115318 0,7.95869191 0,8 L0,15.4354561 C0.0549828179,15.7383821 0.302405498,15.9862306 0.604810997,15.9862306 L0.604810997,15.9862306 Z M9.33333333,14.8571429 L6.74914089,14.8571429 L6.74914089,12.2685026 L9.33333333,12.2685026 L9.33333333,14.8571429 L9.33333333,14.8571429 Z M8.02749141,1.36316695 L14.0893471,7.43545611 L1.96563574,7.43545611 L8.02749141,1.36316695 L8.02749141,1.36316695 Z M1.16838488,8.56454389 L14.8728522,8.56454389 L14.8728522,14.8709122 L10.4604811,14.8709122 L10.4604811,11.7039587 C10.4604811,11.3872633 10.2130584,11.1394148 9.89690722,11.1394148 L6.18556701,11.1394148 C5.86941581,11.1394148 5.62199313,11.3872633 5.62199313,11.7039587 L5.62199313,14.8571429 L1.16838488,14.8571429 L1.16838488,8.56454389 L1.16838488,8.56454389 Z" id="home"></path>
                </g>
            </g>
        </g>
    </g>
</svg>