<?xml version="1.0" encoding="UTF-8" standalone="no"?>
<svg width="26px" height="26px" viewBox="0 0 26 26" version="1.1" xmlns="http://www.w3.org/2000/svg" xmlns:xlink="http://www.w3.org/1999/xlink">
    <!-- Generator: Sketch 40.3 (33839) - http://www.bohemiancoding.com/sketch -->
    <title>Group 5</title>
    <desc>Created with Sketch.</desc>
    <defs></defs>
    <g id="wireframes" stroke="none" stroke-width="1" fill="none" fill-rule="evenodd">
        <g id="Desktop-HD" transform="translate(-598.000000, -1147.000000)">
            <g id="Group-5" transform="translate(598.000000, 1147.000000)">
                <circle id="Oval" fill="#F59393" cx="13" cy="13" r="13"></circle>
                <path d="M7.89006024,9.85089183 L8.31588855,9.85089183 L9.30948795,18.1569606 C9.32841365,18.3558516 9.49874498,18.4979167 9.69746486,18.4979167 L16.3025351,18.4979167 C16.501255,18.4979167 16.6621235,18.3558516 16.690512,18.1569606 L17.6841114,9.85089183 L18.1099398,9.85089183 C18.3275853,9.85089183 18.4979167,9.6804138 18.4979167,9.46258075 C18.4979167,9.2447477 18.3275853,9.07426967 18.1099398,9.07426967 L17.3339859,9.07426967 L15.1386044,9.07426967 L15.1386044,7.89039442 C15.1386044,7.67256137 14.9682731,7.50208333 14.7506275,7.50208333 L11.2493725,7.50208333 C11.0317269,7.50208333 10.8613956,7.67256137 10.8613956,7.89039442 L10.8613956,9.07426967 L8.66601406,9.07426967 L7.89006024,9.07426967 C7.67241466,9.07426967 7.50208333,9.2447477 7.50208333,9.46258075 C7.50208333,9.6804138 7.68187751,9.85089183 7.89006024,9.85089183 L7.89006024,9.85089183 Z M11.6373494,8.2787055 L14.3626506,8.2787055 L14.3626506,9.07426967 L11.6373494,9.07426967 L11.6373494,8.2787055 L11.6373494,8.2787055 Z M16.8986948,9.85089183 L15.9618725,17.7307655 L10.0381275,17.7307655 L9.10130522,9.85089183 L16.8986948,9.85089183 L16.8986948,9.85089183 Z M11.7130522,16.5468903 C11.9306978,16.5468903 12.1010291,16.3764122 12.1010291,16.1585792 L12.1010291,11.5083172 C12.1010291,11.2904841 11.9306978,11.1200061 11.7130522,11.1200061 C11.4954066,11.1200061 11.3250753,11.2904841 11.3250753,11.5083172 L11.3250753,16.1585792 C11.3250753,16.3764122 11.4954066,16.5468903 11.7130522,16.5468903 Z M14.2869478,16.5468903 C14.5045934,16.5468903 14.6749247,16.3764122 14.6749247,16.1585792 L14.6749247,11.5083172 C14.6749247,11.2904841 14.5045934,11.1200061 14.2869478,11.1200061 C14.0693022,11.1200061 13.8989709,11.2904841 13.8989709,11.5083172 L13.8989709,16.1585792 C13.8989709,16.3764122 14.0787651,16.5468903 14.2869478,16.5468903 Z" id="garbage" fill="#FFFFFF"></path>
            </g>
        </g>
    </g>
</svg>