<?xml version="1.0" encoding="UTF-8" standalone="no"?>
<svg width="16px" height="16px" viewBox="0 0 16 16" version="1.1" xmlns="http://www.w3.org/2000/svg" xmlns:xlink="http://www.w3.org/1999/xlink">
    <!-- Generator: Sketch 40 (33762) - http://www.bohemiancoding.com/sketch -->
    <title>cancel</title>
    <desc>Created with Sketch.</desc>
    <defs></defs>
    <g id="Page-1" stroke="none" stroke-width="1" fill="none" fill-rule="evenodd">
        <g id="Desktop-HD" transform="translate(-673.000000, -270.000000)" fill="#FFFFFF">
            <g id="Group-2" transform="translate(251.000000, 252.000000)">
                <path d="M422.165232,33.8347676 C422.275387,33.9449225 422.413081,34 422.564544,34 C422.716007,34 422.853701,33.9449225 422.963855,33.8347676 L430,26.7986231 L437.036145,33.8347676 C437.146299,33.9449225 437.283993,34 437.435456,34 C437.57315,34 437.724613,33.9449225 437.834768,33.8347676 C438.055077,33.6144578 438.055077,33.2564544 437.834768,33.0361446 L430.798623,26 L437.834768,18.9638554 C438.055077,18.7435456 438.055077,18.3855422 437.834768,18.1652324 C437.614458,17.9449225 437.256454,17.9449225 437.036145,18.1652324 L430,25.2013769 L422.963855,18.1652324 C422.743546,17.9449225 422.385542,17.9449225 422.165232,18.1652324 C421.944923,18.3855422 421.944923,18.7435456 422.165232,18.9638554 L429.201377,26 L422.165232,33.0361446 C421.944923,33.2564544 421.944923,33.6144578 422.165232,33.8347676 L422.165232,33.8347676 Z" id="cancel"></path>
            </g>
        </g>
    </g>
</svg>